<mxfile host="drawio-plugin" modified="2021-08-16T01:08:19.013Z" agent="5.0 (Macintosh; Intel Mac OS X 11_3_1) AppleWebKit/537.36 (KHTML, like Gecko) Chrome/89.0.4389.90 Safari/537.36" etag="TjvRrGzb4roZKBZIyNBp" version="14.7.4" type="embed" pages="2"><diagram id="NdubJLfwddjYoVvu1c3P" name="Page-1"><mxGraphModel dx="601" dy="753" grid="1" gridSize="10" guides="1" tooltips="1" connect="1" arrows="1" fold="1" page="1" pageScale="1" pageWidth="850" pageHeight="1100" math="0" shadow="0"><root><mxCell id="0"/><mxCell id="1" parent="0"/><mxCell id="2" value="Mongo" style="shape=cylinder3;whiteSpace=wrap;html=1;boundedLbl=1;backgroundOutline=1;size=15;" parent="1" vertex="1"><mxGeometry x="470" y="20" width="100" height="120" as="geometry"/></mxCell><mxCell id="3" value="Server" style="rounded=0;whiteSpace=wrap;html=1;" parent="1" vertex="1"><mxGeometry x="460" y="220" width="120" height="60" as="geometry"/></mxCell><mxCell id="4" value="Client" style="rounded=0;whiteSpace=wrap;html=1;" parent="1" vertex="1"><mxGeometry x="460" y="360" width="120" height="60" as="geometry"/></mxCell><mxCell id="5" value="" style="endArrow=classic;startArrow=classic;html=1;" parent="1" edge="1"><mxGeometry width="50" height="50" relative="1" as="geometry"><mxPoint x="519.5" y="210" as="sourcePoint"/><mxPoint x="519.5" y="150" as="targetPoint"/></mxGeometry></mxCell><mxCell id="7" value="&lt;br&gt;" style="text;html=1;align=center;verticalAlign=middle;resizable=0;points=[];autosize=1;strokeColor=none;" parent="1" vertex="1"><mxGeometry x="50" y="50" width="20" height="20" as="geometry"/></mxCell><mxCell id="8" value="&lt;div&gt;&lt;span&gt;&lt;font face=&quot;helvetica&quot;&gt;Allow new users to register an email and password.&lt;/font&gt;&lt;/span&gt;&lt;/div&gt;&lt;div&gt;&lt;span&gt;&lt;font face=&quot;helvetica&quot;&gt;&lt;br&gt;&lt;/font&gt;&lt;/span&gt;&lt;/div&gt;&lt;div&gt;&lt;span&gt;&lt;font face=&quot;helvetica&quot;&gt;User who already have an email and password can sign-in&lt;/font&gt;&lt;/span&gt;&lt;/div&gt;&lt;div&gt;&lt;span&gt;&lt;font face=&quot;helvetica&quot;&gt;&lt;br&gt;&lt;/font&gt;&lt;/span&gt;&lt;/div&gt;&lt;div&gt;&lt;span&gt;&lt;font face=&quot;helvetica&quot;&gt;Encrypt stored passwords&lt;/font&gt;&lt;/span&gt;&lt;/div&gt;&lt;div&gt;&lt;span&gt;&lt;font face=&quot;helvetica&quot;&gt;&lt;br&gt;&lt;/font&gt;&lt;/span&gt;&lt;/div&gt;&lt;div&gt;&lt;font face=&quot;helvetica&quot;&gt;Authorisation checks&lt;/font&gt;&lt;/div&gt;" style="text;whiteSpace=wrap;html=1;" parent="1" vertex="1"><mxGeometry x="125" y="650" width="190" height="150" as="geometry"/></mxCell><mxCell id="CDI_wBvUDRWnjezO43ET-44" value="Table" style="shape=table;html=1;whiteSpace=wrap;startSize=30;container=1;collapsible=0;childLayout=tableLayout;fixedRows=1;rowLines=0;fontStyle=1;align=center;" parent="1" vertex="1"><mxGeometry x="680" y="20" width="200" height="120" as="geometry"/></mxCell><mxCell id="CDI_wBvUDRWnjezO43ET-45" value="" style="shape=partialRectangle;html=1;whiteSpace=wrap;collapsible=0;dropTarget=0;pointerEvents=0;fillColor=none;top=0;left=0;bottom=1;right=0;points=[[0,0.5],[1,0.5]];portConstraint=eastwest;" parent="CDI_wBvUDRWnjezO43ET-44" vertex="1"><mxGeometry y="30" width="200" height="30" as="geometry"/></mxCell><mxCell id="CDI_wBvUDRWnjezO43ET-46" value="1" style="shape=partialRectangle;html=1;whiteSpace=wrap;connectable=0;fillColor=none;top=0;left=0;bottom=0;right=0;overflow=hidden;" parent="CDI_wBvUDRWnjezO43ET-45" vertex="1"><mxGeometry width="46" height="30" as="geometry"/></mxCell><mxCell id="CDI_wBvUDRWnjezO43ET-47" value="User" style="shape=partialRectangle;html=1;whiteSpace=wrap;connectable=0;fillColor=none;top=0;left=0;bottom=0;right=0;align=left;spacingLeft=6;overflow=hidden;" parent="CDI_wBvUDRWnjezO43ET-45" vertex="1"><mxGeometry x="46" width="154" height="30" as="geometry"/></mxCell><mxCell id="CDI_wBvUDRWnjezO43ET-48" value="" style="shape=partialRectangle;html=1;whiteSpace=wrap;collapsible=0;dropTarget=0;pointerEvents=0;fillColor=none;top=0;left=0;bottom=0;right=0;points=[[0,0.5],[1,0.5]];portConstraint=eastwest;" parent="CDI_wBvUDRWnjezO43ET-44" vertex="1"><mxGeometry y="60" width="200" height="30" as="geometry"/></mxCell><mxCell id="CDI_wBvUDRWnjezO43ET-49" value="2" style="shape=partialRectangle;html=1;whiteSpace=wrap;connectable=0;fillColor=none;top=0;left=0;bottom=0;right=0;overflow=hidden;" parent="CDI_wBvUDRWnjezO43ET-48" vertex="1"><mxGeometry width="46" height="30" as="geometry"/></mxCell><mxCell id="CDI_wBvUDRWnjezO43ET-50" value="name" style="shape=partialRectangle;html=1;whiteSpace=wrap;connectable=0;fillColor=none;top=0;left=0;bottom=0;right=0;align=left;spacingLeft=6;overflow=hidden;" parent="CDI_wBvUDRWnjezO43ET-48" vertex="1"><mxGeometry x="46" width="154" height="30" as="geometry"/></mxCell><mxCell id="CDI_wBvUDRWnjezO43ET-51" value="" style="shape=partialRectangle;html=1;whiteSpace=wrap;collapsible=0;dropTarget=0;pointerEvents=0;fillColor=none;top=0;left=0;bottom=0;right=0;points=[[0,0.5],[1,0.5]];portConstraint=eastwest;" parent="CDI_wBvUDRWnjezO43ET-44" vertex="1"><mxGeometry y="90" width="200" height="30" as="geometry"/></mxCell><mxCell id="CDI_wBvUDRWnjezO43ET-52" value="3" style="shape=partialRectangle;html=1;whiteSpace=wrap;connectable=0;fillColor=none;top=0;left=0;bottom=0;right=0;overflow=hidden;" parent="CDI_wBvUDRWnjezO43ET-51" vertex="1"><mxGeometry width="46" height="30" as="geometry"/></mxCell><mxCell id="CDI_wBvUDRWnjezO43ET-53" value="password" style="shape=partialRectangle;html=1;whiteSpace=wrap;connectable=0;fillColor=none;top=0;left=0;bottom=0;right=0;align=left;spacingLeft=6;overflow=hidden;" parent="CDI_wBvUDRWnjezO43ET-51" vertex="1"><mxGeometry x="46" width="154" height="30" as="geometry"/></mxCell><mxCell id="CDI_wBvUDRWnjezO43ET-54" value="" style="endArrow=classic;startArrow=classic;html=1;" parent="1" edge="1"><mxGeometry width="50" height="50" relative="1" as="geometry"><mxPoint x="520" y="340" as="sourcePoint"/><mxPoint x="519.5" y="290" as="targetPoint"/></mxGeometry></mxCell><mxCell id="CDI_wBvUDRWnjezO43ET-56" value="JSON Token" style="shape=parallelogram;perimeter=parallelogramPerimeter;whiteSpace=wrap;html=1;fixedSize=1;" parent="1" vertex="1"><mxGeometry x="170" y="200" width="130" height="40" as="geometry"/></mxCell><mxCell id="CDI_wBvUDRWnjezO43ET-60" value="" style="endArrow=classic;html=1;entryX=0;entryY=0.5;entryDx=0;entryDy=0;" parent="1" edge="1"><mxGeometry width="50" height="50" relative="1" as="geometry"><mxPoint x="286.5625" y="218.875" as="sourcePoint"/><mxPoint x="460" y="242" as="targetPoint"/></mxGeometry></mxCell><mxCell id="CDI_wBvUDRWnjezO43ET-61" value="Node" style="shape=parallelogram;perimeter=parallelogramPerimeter;whiteSpace=wrap;html=1;fixedSize=1;" parent="1" vertex="1"><mxGeometry x="160" y="250" width="120" height="40" as="geometry"/></mxCell><mxCell id="CDI_wBvUDRWnjezO43ET-62" value="express" style="shape=parallelogram;perimeter=parallelogramPerimeter;whiteSpace=wrap;html=1;fixedSize=1;" parent="1" vertex="1"><mxGeometry x="150" y="300" width="120" height="40" as="geometry"/></mxCell><mxCell id="CDI_wBvUDRWnjezO43ET-63" value="" style="endArrow=classic;html=1;entryX=0;entryY=0.617;entryDx=0;entryDy=0;exitX=1;exitY=0.5;exitDx=0;exitDy=0;entryPerimeter=0;" parent="1" source="CDI_wBvUDRWnjezO43ET-61" target="3" edge="1"><mxGeometry width="50" height="50" relative="1" as="geometry"><mxPoint x="270.0031654676258" y="280.9352517985611" as="sourcePoint"/><mxPoint x="433.96" y="300" as="targetPoint"/></mxGeometry></mxCell><mxCell id="CDI_wBvUDRWnjezO43ET-64" value="" style="endArrow=classic;html=1;entryX=-0.008;entryY=0.633;entryDx=0;entryDy=0;entryPerimeter=0;exitX=1;exitY=0.5;exitDx=0;exitDy=0;" parent="1" source="CDI_wBvUDRWnjezO43ET-62" edge="1"><mxGeometry width="50" height="50" relative="1" as="geometry"><mxPoint x="267.11140668715325" y="316.77718662569373" as="sourcePoint"/><mxPoint x="459.03999999999996" y="268.98" as="targetPoint"/></mxGeometry></mxCell><mxCell id="CDI_wBvUDRWnjezO43ET-65" value="React" style="shape=parallelogram;perimeter=parallelogramPerimeter;whiteSpace=wrap;html=1;fixedSize=1;" parent="1" vertex="1"><mxGeometry x="150" y="371" width="110" height="40" as="geometry"/></mxCell><mxCell id="CDI_wBvUDRWnjezO43ET-66" value="" style="endArrow=classic;html=1;entryX=0;entryY=0.5;entryDx=0;entryDy=0;exitX=1;exitY=0.5;exitDx=0;exitDy=0;" parent="1" source="CDI_wBvUDRWnjezO43ET-65" target="4" edge="1"><mxGeometry width="50" height="50" relative="1" as="geometry"><mxPoint x="250.00140668715323" y="397.7971866256937" as="sourcePoint"/><mxPoint x="441.92999999999995" y="350" as="targetPoint"/></mxGeometry></mxCell><mxCell id="11" value="" style="shape=cylinder3;whiteSpace=wrap;html=1;boundedLbl=1;backgroundOutline=1;size=15;" parent="1" vertex="1"><mxGeometry x="760" y="580" width="60" height="80" as="geometry"/></mxCell><mxCell id="12" value="&lt;font style=&quot;font-size: 22px&quot;&gt;Server&lt;/font&gt;" style="rounded=1;whiteSpace=wrap;html=1;" vertex="1" parent="1"><mxGeometry x="100" y="1480" width="200" height="110" as="geometry"/></mxCell><mxCell id="13" value="&lt;font style=&quot;font-size: 22px&quot;&gt;Client&lt;/font&gt;" style="rounded=1;whiteSpace=wrap;html=1;" vertex="1" parent="1"><mxGeometry x="450" y="1480" width="200" height="110" as="geometry"/></mxCell><mxCell id="14" value="" style="endArrow=classic;html=1;exitX=1;exitY=0.25;exitDx=0;exitDy=0;entryX=0;entryY=0.25;entryDx=0;entryDy=0;" edge="1" parent="1" source="12" target="13"><mxGeometry width="50" height="50" relative="1" as="geometry"><mxPoint x="350" y="1560" as="sourcePoint"/><mxPoint x="440" y="1510" as="targetPoint"/></mxGeometry></mxCell><mxCell id="18" value="" style="endArrow=classic;html=1;entryX=1;entryY=0.75;entryDx=0;entryDy=0;exitX=0;exitY=0.75;exitDx=0;exitDy=0;" edge="1" parent="1" source="13" target="12"><mxGeometry width="50" height="50" relative="1" as="geometry"><mxPoint x="440" y="1563" as="sourcePoint"/><mxPoint x="310" y="1560" as="targetPoint"/></mxGeometry></mxCell><mxCell id="19" value="localhost:3000" style="text;html=1;strokeColor=none;fillColor=none;align=center;verticalAlign=middle;whiteSpace=wrap;rounded=0;" vertex="1" parent="1"><mxGeometry x="120" y="1590" width="150" height="30" as="geometry"/></mxCell><mxCell id="20" value="localhost:3001" style="text;html=1;strokeColor=none;fillColor=none;align=center;verticalAlign=middle;whiteSpace=wrap;rounded=0;" vertex="1" parent="1"><mxGeometry x="475" y="1590" width="150" height="30" as="geometry"/></mxCell><mxCell id="21" value="HTTP Response" style="text;html=1;strokeColor=none;fillColor=none;align=center;verticalAlign=middle;whiteSpace=wrap;rounded=0;" vertex="1" parent="1"><mxGeometry x="315" y="1480" width="125" height="20" as="geometry"/></mxCell><mxCell id="24" value="HTTP Request" style="text;html=1;strokeColor=none;fillColor=none;align=center;verticalAlign=middle;whiteSpace=wrap;rounded=0;" vertex="1" parent="1"><mxGeometry x="315" y="1580" width="125" height="20" as="geometry"/></mxCell></root></mxGraphModel></diagram><diagram id="9tZ53b02IkfNsm-emwG_" name="Page-2"><mxGraphModel dx="788" dy="738" grid="1" gridSize="10" guides="1" tooltips="1" connect="1" arrows="1" fold="1" page="1" pageScale="1" pageWidth="850" pageHeight="1100" math="0" shadow="0"><root><mxCell id="QTufRnInRVW8KCFhECaF-0"/><mxCell id="QTufRnInRVW8KCFhECaF-1" parent="QTufRnInRVW8KCFhECaF-0"/></root></mxGraphModel></diagram></mxfile>